<svg width="42" height="42" viewBox="0 0 42 42" fill="none" xmlns="http://www.w3.org/2000/svg">
<g clip-path="url(#clip0_60517_20505)">
<path d="M21.0065 13.9248C17.0315 13.9248 13.8253 17.081 13.8253 20.9939C13.8253 24.9068 17.0315 28.0629 21.0065 28.0629C24.9815 28.0629 28.1878 24.9068 28.1878 20.9939C28.1878 17.081 24.9815 13.9248 21.0065 13.9248ZM21.0065 25.5897C18.4378 25.5897 16.3378 23.5286 16.3378 20.9939C16.3378 18.4591 18.4315 16.3981 21.0065 16.3981C23.5815 16.3981 25.6753 18.4591 25.6753 20.9939C25.6753 23.5286 23.5753 25.5897 21.0065 25.5897ZM30.1565 13.6357C30.1565 14.5524 29.4065 15.2845 28.4815 15.2845C27.5503 15.2845 26.8065 14.5462 26.8065 13.6357C26.8065 12.7251 27.5565 11.9868 28.4815 11.9868C29.4065 11.9868 30.1565 12.7251 30.1565 13.6357ZM34.9128 15.3091C34.8065 13.1004 34.294 11.144 32.6503 9.53205C31.0128 7.92014 29.0253 7.41565 26.7815 7.30491C24.469 7.17571 17.5378 7.17571 15.2253 7.30491C12.9878 7.4095 11.0003 7.91399 9.35654 9.5259C7.71279 11.1378 7.20654 13.0943 7.09404 15.3029C6.96279 17.5793 6.96279 24.4023 7.09404 26.6786C7.20029 28.8873 7.71279 30.8438 9.35654 32.4557C11.0003 34.0676 12.9815 34.5721 15.2253 34.6828C17.5378 34.812 24.469 34.812 26.7815 34.6828C29.0253 34.5782 31.0128 34.0737 32.6503 32.4557C34.2878 30.8438 34.8003 28.8873 34.9128 26.6786C35.044 24.4023 35.044 17.5855 34.9128 15.3091ZM31.9253 29.1211C31.4378 30.327 30.494 31.256 29.2628 31.742C27.419 32.4618 23.044 32.2957 21.0065 32.2957C18.969 32.2957 14.5878 32.4557 12.7503 31.742C11.5253 31.2621 10.5815 30.3331 10.0878 29.1211C9.35654 27.3062 9.52529 22.9995 9.52529 20.9939C9.52529 18.9882 9.36279 14.6754 10.0878 12.8666C10.5753 11.6608 11.519 10.7318 12.7503 10.2457C14.594 9.5259 18.969 9.69202 21.0065 9.69202C23.044 9.69202 27.4253 9.53205 29.2628 10.2457C30.4878 10.7256 31.4315 11.6546 31.9253 12.8666C32.6565 14.6816 32.4878 18.9882 32.4878 20.9939C32.4878 22.9995 32.6565 27.3123 31.9253 29.1211Z" fill="#697586"/>
</g>
<defs>
<clipPath id="clip0_60517_20505">
<rect width="28" height="31.5" fill="white" transform="translate(7.00024 5.25)"/>
</clipPath>
</defs>
</svg>
